{
	"asset":{
		"generator":"Khronos glTF Blender I/O v4.4.56",
		"version":"2.0"
	},
	"extensionsUsed":[
		"KHR_materials_clearcoat",
		"KHR_materials_sheen"
	],
	"scene":0,
	"scenes":[
		{
			"name":"Scene",
			"nodes":[
				0,
				1,
				2
			]
		}
	],
	"nodes":[
		{
			"mesh":0,
			"name":"Cube"
		},
		{
			"mesh":1,
			"name":"Cube.001"
		},
		{
			"mesh":2,
			"name":"Cube.002",
			"translation":[
				0,
				1.100000023841858,
				3.500000238418579
			]
		}
	],
	"materials":[
		{
			"doubleSided":true,
			"extensions":{
				"KHR_materials_clearcoat":{
					"clearcoatFactor":0.9590908885002136
				}
			},
			"name":"Material.002",
			"pbrMetallicRoughness":{
				"baseColorFactor":[
					0.17643213272094727,
					0.0634317472577095,
					0.8001105785369873,
					1
				],
				"metallicFactor":0
			}
		},
		{
			"doubleSided":true,
			"emissiveFactor":[
				0.3999999761581421,
				0.0005277519731073377,
				0
			],
			"name":"Material",
			"pbrMetallicRoughness":{
				"baseColorFactor":[
					0.8001892566680908,
					0.009193203411996365,
					0,
					1
				],
				"metallicFactor":0,
				"roughnessFactor":0.5
			}
		},
		{
			"doubleSided":true,
			"extensions":{
				"KHR_materials_sheen":{
					"sheenColorFactor":[
						0.07101793587207794,
						0.019406836479902267,
						1.0
					],
					"sheenRoughnessFactor":0.45454543828964233
				}
			},
			"name":"Material.001",
			"pbrMetallicRoughness":{
				"baseColorFactor":[
					0.035938672721385956,
					0.8011572360992432,
					0,
					1
				],
				"roughnessFactor":0.16818180680274963
			}
		}
	],
	"meshes":[
		{
			"name":"Cube",
			"primitives":[
				{
					"attributes":{
						"POSITION":0,
						"NORMAL":1,
						"TEXCOORD_0":2
					},
					"indices":3,
					"material":0
				}
			]
		},
		{
			"name":"Cube.001",
			"primitives":[
				{
					"attributes":{
						"POSITION":4,
						"NORMAL":5,
						"TEXCOORD_0":6
					},
					"indices":3,
					"material":1
				}
			]
		},
		{
			"name":"Cube.002",
			"primitives":[
				{
					"attributes":{
						"POSITION":7,
						"NORMAL":8,
						"TEXCOORD_0":9
					},
					"indices":3,
					"material":2
				}
			]
		}
	],
	"accessors":[
		{
			"bufferView":0,
			"componentType":5126,
			"count":2144,
			"max":[
				2.7043848037719727,
				2.195901393890381,
				1.2800406217575073
			],
			"min":[
				-2.7043848037719727,
				0.004098653793334961,
				-1.2800406217575073
			],
			"type":"VEC3"
		},
		{
			"bufferView":1,
			"componentType":5126,
			"count":2144,
			"type":"VEC3"
		},
		{
			"bufferView":2,
			"componentType":5126,
			"count":2144,
			"type":"VEC2"
		},
		{
			"bufferView":3,
			"componentType":5123,
			"count":12036,
			"type":"SCALAR"
		},
		{
			"bufferView":4,
			"componentType":5126,
			"count":2144,
			"max":[
				2.7043848037719727,
				2.195901393890381,
				-2.419959545135498
			],
			"min":[
				-2.7043848037719727,
				0.004098653793334961,
				-4.980040550231934
			],
			"type":"VEC3"
		},
		{
			"bufferView":5,
			"componentType":5126,
			"count":2144,
			"type":"VEC3"
		},
		{
			"bufferView":6,
			"componentType":5126,
			"count":2144,
			"type":"VEC2"
		},
		{
			"bufferView":7,
			"componentType":5126,
			"count":2144,
			"max":[
				2.7043848037719727,
				1.095901370048523,
				1.2800406217575073
			],
			"min":[
				-2.7043848037719727,
				-1.095901370048523,
				-1.2800406217575073
			],
			"type":"VEC3"
		},
		{
			"bufferView":8,
			"componentType":5126,
			"count":2144,
			"type":"VEC3"
		},
		{
			"bufferView":9,
			"componentType":5126,
			"count":2144,
			"type":"VEC2"
		}
	],
	"bufferViews":[
		{
			"buffer":0,
			"byteLength":25728,
			"byteOffset":0,
			"target":34962
		},
		{
			"buffer":0,
			"byteLength":25728,
			"byteOffset":25728,
			"target":34962
		},
		{
			"buffer":0,
			"byteLength":17152,
			"byteOffset":51456,
			"target":34962
		},
		{
			"buffer":0,
			"byteLength":24072,
			"byteOffset":68608,
			"target":34963
		},
		{
			"buffer":0,
			"byteLength":25728,
			"byteOffset":92680,
			"target":34962
		},
		{
			"buffer":0,
			"byteLength":25728,
			"byteOffset":118408,
			"target":34962
		},
		{
			"buffer":0,
			"byteLength":17152,
			"byteOffset":144136,
			"target":34962
		},
		{
			"buffer":0,
			"byteLength":25728,
			"byteOffset":161288,
			"target":34962
		},
		{
			"buffer":0,
			"byteLength":25728,
			"byteOffset":187016,
			"target":34962
		},
		{
			"buffer":0,
			"byteLength":17152,
			"byteOffset":212744,
			"target":34962
		}
	],
	"buffers":[
		{
			"byteLength":229896,
			"uri":"Untitled.bin"
		}
	]
}
